# xmcd CD database file generated by Grip 2.94
# 
# Track frame offsets:
#       150
#       17085
#       34690
#       51960
#       69365
#       92095
#       109037
#       126617
#       143822
#       161257
# 
# Disc length: 2452 seconds
# 
# Revision: 3
# Processed by: cddbd v1.4b41PL1 Copyright (c) Steve Scherf et al.
# Submitted via: Grip 2.94
# 
DISCID=8309920a
DTITLE=Professional Performance Music for Singers - Sing Like Shania Twain v2
DYEAR=1900
DGENRE=
TTITLE0=Love Gets Me Everytime - music
TTITLE1=Don't Be Stupid - music
TTITLE2=You're Still The One - music
TTITLE3=Honey, I'm Home - music
TTITLE4=From This Moment On - music
TTITLE5=Love Gets Me Everytime - vocal
TTITLE6=Don't Be Stupid - vocal
TTITLE7=You're Still The One - vocal
TTITLE8=Honey, I'm Home - vocal
TTITLE9=From This Moment On - vocal
EXTD=
EXTT0=
EXTT1=
EXTT2=
EXTT3=
EXTT4=
EXTT5=
EXTT6=
EXTT7=
EXTT8=
EXTT9=
PLAYORDER=
